G04 Layer_Color=1131839*
%FSLAX44Y44*%
%MOMM*%
G71*
G01*
G75*
%ADD15C,0.4000*%
%ADD16C,0.2540*%
%ADD17C,0.1524*%
%ADD34C,0.1270*%
D15*
X185674Y145542D02*
G03*
X193040Y138176I7366J0D01*
G01*
X279908D02*
G03*
X287274Y145542I0J7366D01*
G01*
X287270Y338582D02*
G03*
X279904Y345948I-7366J0D01*
G01*
X193040D02*
G03*
X185674Y338582I0J-7366D01*
G01*
X193040Y138176D02*
X279908D01*
X287270Y145542D02*
X287274D01*
X287270D02*
Y338582D01*
X193040Y345948D02*
X279904D01*
X185674Y145542D02*
Y338582D01*
D16*
X287274Y123698D02*
Y128778D01*
X185678Y123698D02*
Y128778D01*
X287274Y126238D02*
X302514Y121158D01*
X287274Y126238D02*
X302514Y131318D01*
X170438Y121158D02*
X185678Y126238D01*
X170438Y131318D02*
X185678Y126238D01*
X287274D02*
X312674D01*
X160278D02*
X185678D01*
X163832Y345923D02*
X168913D01*
X163832Y138151D02*
X168913D01*
X166373Y345923D02*
X171453Y330683D01*
X161292D02*
X166373Y345923D01*
Y138151D02*
X171453Y153391D01*
X161292D02*
X166373Y138151D01*
Y322277D02*
Y345923D01*
Y138151D02*
Y161798D01*
D17*
X168933Y89672D02*
X174012D01*
X171473D01*
Y104907D01*
X168933Y102368D01*
X181629D02*
X184168Y104907D01*
X189247D01*
X191786Y102368D01*
Y92211D01*
X189247Y89672D01*
X184168D01*
X181629Y92211D01*
Y102368D01*
X196864Y89672D02*
Y92211D01*
X199403D01*
Y89672D01*
X196864D01*
X209560D02*
X214639D01*
X212099D01*
Y104907D01*
X209560Y102368D01*
X232413Y104907D02*
X227334Y102368D01*
X222256Y97289D01*
Y92211D01*
X224795Y89672D01*
X229874D01*
X232413Y92211D01*
Y94750D01*
X229874Y97289D01*
X222256D01*
X257805Y89672D02*
X252726Y94750D01*
Y99829D01*
X257805Y104907D01*
X265422Y89672D02*
Y99829D01*
X267961D01*
X270501Y97289D01*
Y89672D01*
Y97289D01*
X273040Y99829D01*
X275579Y97289D01*
Y89672D01*
X280657D02*
Y99829D01*
X283196D01*
X285735Y97289D01*
Y89672D01*
Y97289D01*
X288275Y99829D01*
X290814Y97289D01*
Y89672D01*
X295892D02*
X300971Y94750D01*
Y99829D01*
X295892Y104907D01*
X175514Y174495D02*
Y164338D01*
X165357Y174495D01*
X162818D01*
X160279Y171956D01*
Y166877D01*
X162818Y164338D01*
Y179573D02*
X160279Y182112D01*
Y187191D01*
X162818Y189730D01*
X172975D01*
X175514Y187191D01*
Y182112D01*
X172975Y179573D01*
X162818D01*
X175514Y194808D02*
X172975D01*
Y197347D01*
X175514D01*
Y194808D01*
X160279Y207504D02*
Y217661D01*
X162818D01*
X172975Y207504D01*
X175514D01*
X160279Y222739D02*
Y232896D01*
X162818D01*
X172975Y222739D01*
X175514D01*
X160279Y237974D02*
Y248131D01*
X162818D01*
X172975Y237974D01*
X175514D01*
Y273523D02*
X170436Y268444D01*
X165357D01*
X160279Y273523D01*
X175514Y281140D02*
X165357D01*
Y283679D01*
X167896Y286219D01*
X175514D01*
X167896D01*
X165357Y288758D01*
X167896Y291297D01*
X175514D01*
Y296375D02*
X165357D01*
Y298915D01*
X167896Y301454D01*
X175514D01*
X167896D01*
X165357Y303993D01*
X167896Y306532D01*
X175514D01*
Y311610D02*
X170436Y316689D01*
X165357D01*
X160279Y311610D01*
D34*
X308610Y336042D02*
Y343040D01*
X312109D01*
X313275Y341874D01*
Y339541D01*
X312109Y338375D01*
X308610D01*
X315608Y336042D02*
X317940D01*
X316774D01*
Y343040D01*
X315608D01*
X322606Y340707D02*
X324938D01*
X326104Y339541D01*
Y336042D01*
X322606D01*
X321439Y337208D01*
X322606Y338375D01*
X326104D01*
X329603Y341874D02*
Y340707D01*
X328437D01*
X330770D01*
X329603D01*
Y337208D01*
X330770Y336042D01*
X337767D02*
X335435D01*
X334268Y337208D01*
Y339541D01*
X335435Y340707D01*
X337767D01*
X338934Y339541D01*
Y338375D01*
X334268D01*
X349430Y340707D02*
X351763D01*
X352929Y339541D01*
Y336042D01*
X349430D01*
X348264Y337208D01*
X349430Y338375D01*
X352929D01*
X355262Y336042D02*
X357594D01*
X356428D01*
Y343040D01*
X355262D01*
X361093Y336042D02*
X363426D01*
X362259D01*
Y343040D01*
X361093D01*
X373922Y340707D02*
X376255Y336042D01*
X378587Y340707D01*
X380920Y336042D02*
X383253D01*
X382086D01*
Y340707D01*
X380920D01*
X387918D02*
X390250D01*
X391417Y339541D01*
Y336042D01*
X387918D01*
X386752Y337208D01*
X387918Y338375D01*
X391417D01*
X393749Y336042D02*
X397248D01*
X398414Y337208D01*
X397248Y338375D01*
X394916D01*
X393749Y339541D01*
X394916Y340707D01*
X398414D01*
X408911D02*
X411244D01*
X412410Y339541D01*
Y336042D01*
X408911D01*
X407745Y337208D01*
X408911Y338375D01*
X412410D01*
X414743Y336042D02*
Y340707D01*
X418241D01*
X419408Y339541D01*
Y336042D01*
X426405Y343040D02*
Y336042D01*
X422907D01*
X421740Y337208D01*
Y339541D01*
X422907Y340707D01*
X426405D01*
X436902Y341874D02*
Y340707D01*
X435736D01*
X438068D01*
X436902D01*
Y337208D01*
X438068Y336042D01*
X441567Y343040D02*
Y336042D01*
Y339541D01*
X442734Y340707D01*
X445066D01*
X446232Y339541D01*
Y336042D01*
X448565Y340707D02*
Y336042D01*
Y338375D01*
X449731Y339541D01*
X450898Y340707D01*
X452064D01*
X456729Y336042D02*
X459062D01*
X460228Y337208D01*
Y339541D01*
X459062Y340707D01*
X456729D01*
X455563Y339541D01*
Y337208D01*
X456729Y336042D01*
X462561Y340707D02*
Y337208D01*
X463727Y336042D01*
X467226D01*
Y340707D01*
X471891Y333709D02*
X473057D01*
X474223Y334876D01*
Y340707D01*
X470725D01*
X469558Y339541D01*
Y337208D01*
X470725Y336042D01*
X474223D01*
X476556Y343040D02*
Y336042D01*
Y339541D01*
X477722Y340707D01*
X480055D01*
X481221Y339541D01*
Y336042D01*
X490551Y343040D02*
Y336042D01*
Y339541D01*
X491718Y340707D01*
X494050D01*
X495217Y339541D01*
Y336042D01*
X498716D02*
X501048D01*
X502214Y337208D01*
Y339541D01*
X501048Y340707D01*
X498716D01*
X497549Y339541D01*
Y337208D01*
X498716Y336042D01*
X504547D02*
X506880D01*
X505713D01*
Y343040D01*
X504547D01*
X513877Y336042D02*
X511545D01*
X510378Y337208D01*
Y339541D01*
X511545Y340707D01*
X513877D01*
X515044Y339541D01*
Y338375D01*
X510378D01*
X517376Y336042D02*
X520875D01*
X522041Y337208D01*
X520875Y338375D01*
X518543D01*
X517376Y339541D01*
X518543Y340707D01*
X522041D01*
M02*
