G04 Layer_Color=8388736*
%FSLAX44Y44*%
%MOMM*%
G71*
G01*
G75*
%ADD15C,0.4000*%
%ADD16C,0.2540*%
%ADD17C,0.1524*%
%ADD27R,1.7272X1.2192*%
%ADD28R,1.2192X1.7272*%
%ADD29R,1.6032X0.9032*%
%ADD30R,2.4632X3.1932*%
%ADD31C,1.7032*%
%ADD32R,1.7032X1.7032*%
%ADD33C,0.7032*%
D15*
X185674Y145542D02*
G03*
X193040Y138176I7366J0D01*
G01*
X279908D02*
G03*
X287274Y145542I0J7366D01*
G01*
X287270Y338582D02*
G03*
X279904Y345948I-7366J0D01*
G01*
X193040D02*
G03*
X185674Y338582I0J-7366D01*
G01*
X193040Y138176D02*
X279908D01*
X287270Y145542D02*
X287274D01*
X287270D02*
Y338582D01*
X193040Y345948D02*
X279904D01*
X185674Y145542D02*
Y338582D01*
D16*
X287274Y123698D02*
Y128778D01*
X185678Y123698D02*
Y128778D01*
X287274Y126238D02*
X302514Y121158D01*
X287274Y126238D02*
X302514Y131318D01*
X170438Y121158D02*
X185678Y126238D01*
X170438Y131318D02*
X185678Y126238D01*
X287274D02*
X312674D01*
X160278D02*
X185678D01*
X163832Y345923D02*
X168913D01*
X163832Y138151D02*
X168913D01*
X166373Y345923D02*
X171453Y330683D01*
X161292D02*
X166373Y345923D01*
Y138151D02*
X171453Y153391D01*
X161292D02*
X166373Y138151D01*
Y322277D02*
Y345923D01*
Y138151D02*
Y161798D01*
D17*
X168933Y89672D02*
X174012D01*
X171473D01*
Y104907D01*
X168933Y102368D01*
X181629D02*
X184168Y104907D01*
X189247D01*
X191786Y102368D01*
Y92211D01*
X189247Y89672D01*
X184168D01*
X181629Y92211D01*
Y102368D01*
X196864Y89672D02*
Y92211D01*
X199403D01*
Y89672D01*
X196864D01*
X209560D02*
X214639D01*
X212099D01*
Y104907D01*
X209560Y102368D01*
X232413Y104907D02*
X227334Y102368D01*
X222256Y97289D01*
Y92211D01*
X224795Y89672D01*
X229874D01*
X232413Y92211D01*
Y94750D01*
X229874Y97289D01*
X222256D01*
X257805Y89672D02*
X252726Y94750D01*
Y99829D01*
X257805Y104907D01*
X265422Y89672D02*
Y99829D01*
X267961D01*
X270501Y97289D01*
Y89672D01*
Y97289D01*
X273040Y99829D01*
X275579Y97289D01*
Y89672D01*
X280657D02*
Y99829D01*
X283196D01*
X285735Y97289D01*
Y89672D01*
Y97289D01*
X288275Y99829D01*
X290814Y97289D01*
Y89672D01*
X295892D02*
X300971Y94750D01*
Y99829D01*
X295892Y104907D01*
X175514Y174495D02*
Y164338D01*
X165357Y174495D01*
X162818D01*
X160279Y171956D01*
Y166877D01*
X162818Y164338D01*
Y179573D02*
X160279Y182112D01*
Y187191D01*
X162818Y189730D01*
X172975D01*
X175514Y187191D01*
Y182112D01*
X172975Y179573D01*
X162818D01*
X175514Y194808D02*
X172975D01*
Y197347D01*
X175514D01*
Y194808D01*
X160279Y207504D02*
Y217661D01*
X162818D01*
X172975Y207504D01*
X175514D01*
X160279Y222739D02*
Y232896D01*
X162818D01*
X172975Y222739D01*
X175514D01*
X160279Y237974D02*
Y248131D01*
X162818D01*
X172975Y237974D01*
X175514D01*
Y273523D02*
X170436Y268444D01*
X165357D01*
X160279Y273523D01*
X175514Y281140D02*
X165357D01*
Y283679D01*
X167896Y286219D01*
X175514D01*
X167896D01*
X165357Y288758D01*
X167896Y291297D01*
X175514D01*
Y296375D02*
X165357D01*
Y298915D01*
X167896Y301454D01*
X175514D01*
X167896D01*
X165357Y303993D01*
X167896Y306532D01*
X175514D01*
Y311610D02*
X170436Y316689D01*
X165357D01*
X160279Y311610D01*
D27*
X237236Y277114D02*
D03*
Y256794D02*
D03*
Y328168D02*
D03*
Y307848D02*
D03*
D28*
X226568Y232156D02*
D03*
X246888D02*
D03*
Y151892D02*
D03*
X226568D02*
D03*
D29*
X211482Y211074D02*
D03*
Y198374D02*
D03*
Y185674D02*
D03*
Y172974D02*
D03*
X262482Y211074D02*
D03*
Y198374D02*
D03*
Y185674D02*
D03*
Y172974D02*
D03*
D30*
X236982Y192024D02*
D03*
D31*
X274570Y257048D02*
D03*
Y282448D02*
D03*
Y307848D02*
D03*
X198374Y333248D02*
D03*
Y307848D02*
D03*
Y282448D02*
D03*
D32*
X274570Y333248D02*
D03*
X198374Y257048D02*
D03*
D33*
X231482Y192024D02*
D03*
Y203024D02*
D03*
X242482D02*
D03*
Y192024D02*
D03*
X231482Y181024D02*
D03*
X242482D02*
D03*
M02*
