M48
;Layer_Color=9474304
;FILE_FORMAT=4:4
METRIC,LZ
;TYPE=PLATED
T1F00S00C0.2000
T2F00S00C0.3048
T3F00S00C0.4318
T4F00S00C0.9000
%
T01
X00231482Y00181024
X00242482
Y00192024
X00231482
Y00203024
X00242482
T02
X00194056Y00185674
X00201168Y00198374
X00272796Y00185674
X00279908Y00172974
T03
X00256794Y00151892
X00226314Y00219456
X0023749Y00287274
X00237744Y00338328
T04
X00198374Y00257048
Y00282448
Y00307848
Y00333248
X0027457
Y00307848
Y00282448
Y00257048
M30
